<svg xmlns="http://www.w3.org/2000/svg" width="31" height="45" viewBox="0 0 31 45">
    <path fill="#FFF" fill-rule="evenodd" d="M30.278 8.6c-.047.008-10.15 1.361-10.15 1.361S16.275.545 15.891.157c-.384-.389-.605.068-.605.068l-3.16 9.668s-11.027.61-11.696.613c-.664.014-.395.457-.27.613.08.063 6.97 8.338 7.328 8.58.286.243.269.476.269.476S9.072 43.11 9.102 44.278c.093 1.476.942.205.942.205l6.042-8.605s1.537-2.267 1.554-2.29c.134-.204.269-.204.269-.204l11.294 1.226s.694.156.403-.477c-1.664-3.682-6.185-13.754-6.185-13.754l7.193-11.03c.527-.857.317-.834-.336-.75m-8.94 8.637h-3.143v12.676h-3.731V17.236H11.32v-3.461h10.016"/>
</svg>
