<svg xmlns="http://www.w3.org/2000/svg" width="111" height="46" viewBox="0 0 111 46">
    <path fill="#FFF" fill-rule="evenodd" d="M110.027 35.357s.07.417-.413.417c-.482 0-92.308-.006-92.409-.004-.1.003-.182.004-.32.213-.108.163-6.505 9.238-6.599 9.358-.094.119-.768 1.103-.85-.193A35358.73 35358.73 0 0 0 7.93 20.552s.002-.18-.086-.273c-.051-.055-.19-.213-.19-.213S.272 11.319.19 11.256c-.13-.161-.45-.56.23-.574.686-.002 11.812-.611 11.909-.619.096-.008.113-.113.113-.113L15.745.28s.205-.557.51-.1c.28.418 3.66 8.217 3.66 8.217s.17.399.21.443c.041.045.225.035.225.035h89.333s.344-.027.344.348v26.134zm-2.273-1.46c.222 0 .207-.208.207-.208V10.96c0-.236-.207-.208-.207-.208H30.856s-.025-.001-.118.004c-.093.006-.163.104-.163.104l-6.55 9.834s-.036.046-.035.067c.001.02.02.064.02.064s5.715 12.63 5.827 12.864c.111.233.344.209.344.209h77.573zM21.845 17.553h-3.22v12.94H14.8v-12.94h-3.22V14.02h10.265v3.533zm32.346 4.685l5.365 8.165-4.355.017-3.7-5.601v5.673H47.83V14.114h3.673v5.363l4.834-5.465 2.638 2.723-4.783 5.502zm39.092 4.667v3.567H83.49V14.036h9.774v3.428h-6.064v3.148h5.958v3.225h-5.958v3.067h6.084zM82.18 14.03v3.526h-3.22v12.918h-3.828V17.556h-3.223V14.03h10.27zM70.598 26.903v3.567h-9.795V14.034h9.775v3.428h-6.064v3.148h5.958v3.226h-5.958v3.067h6.084zm30.49-4.664l5.364 8.164-4.355.017-3.699-5.6v5.673h-3.673V14.115h3.673v5.364l4.834-5.465 2.638 2.722-4.783 5.503zm-56.91 3.359l2.132 2.882c-2.34 1.92-3.61 2.14-5.703 1.94-1.94-.181-3.997-2.247-4.825-4.463-.826-2.213-.654-4.684-.574-4.936.084-.251.448-4.924 4.402-6.692 3.26-1.145 6.219 1.32 6.219 1.32l-1.72 3.101c-1.839-1.174-3.496-.897-4.646.86-1.373 2.106-.28 4.91-.28 4.91s.842 2.021 2.448 2.021c1.606 0 2.546-.943 2.546-.943zm-14.251 4.843V14.066H33.6V30.44h-3.673z"/>
</svg>
